<svg xmlns="http://www.w3.org/2000/svg" xmlns:xlink="http://www.w3.org/1999/xlink" xmlns:lucid="lucid" width="2176" height="576"><g transform="translate(1063 -2630)" lucid:page-tab-id="0_0"><path d="M-3500-1500h5000v6500h-5000z" fill="#fff"/><path d="M1011.04 3142h-2000v-202h2000z" fill="#edf5ff"/><path d="M1005.77 3142h30.47l-26.94-101h-30.47zM1009.24 3041h-30.47l26.94-101h30.48zM-993 3142h30.46l-26.93-101h-30.47zM-989.53 3041H-1020l26.93-101h30.47z" stroke="#000" stroke-opacity="0" stroke-width="2" fill="#edf5ff"/><path d="M-993.8 3141H1039M-993.8 2941H1039" stroke="#6db1ff" stroke-width="2" stroke-linecap="round" fill="none"/><path d="M-980 2700h2000v202H-980z" fill="#d7faf5"/><path d="M-974.73 2700h-30.47l26.94 101h30.47zM-978.2 2801h30.47l-26.94 101h-30.47zM1024.05 2700h-30.48l26.94 101H1051zM1020.57 2801h30.47l-26.93 101h-30.47z" stroke="#000" stroke-opacity="0" stroke-width="2" fill="#d7faf5"/><path d="M1026.64 2700h-10l26.93 101h10zM1043.58 2801h10l-26.93 101h-10z" stroke="#000" stroke-opacity="0" stroke-width="2" fill="#b8f5ed"/><path d="M-1009 2901h2028" stroke="#00c2a8" stroke-width="2" stroke-linecap="round" fill="none"/><path d="M-880 2720.78h80.53V3120H-880z" stroke="#000" stroke-width="2" fill="#fff"/><use xlink:href="#a" transform="matrix(1,0,0,1,-875,2725.7758345728553) translate(6.611111111111125 199.57291666666666)"/><path d="M-948 2780.97h-9.47v-1.94h9.47zm48.5 0H-916v-1.94h16.5z" stroke="#000" stroke-width=".05"/><path d="M-957.44 2780.97h-1.03v-1.94h1.03z" stroke="#000" stroke-width=".05"/><path d="M-884.24 2780l-14.26 4.64v-9.28z"/><path d="M-881.08 2780l-18.4 5.98v-11.96zm-16.45 3.3l10.14-3.3-10.13-3.3z" stroke="#000" stroke-width=".05"/><use xlink:href="#b" transform="matrix(1,0,0,1,-948.0040618725919,2769.9305555555557) translate(0.004999999999999005 14.800347222222223)"/><path d="M-946.56 2802h-10.9v-1.96h10.9zm48.06 0h-16.06v-1.96h16.06z" stroke="#000" stroke-width=".05"/><path d="M-957.44 2802h-1.03v-1.96h1.03z" stroke="#000" stroke-width=".05"/><path d="M-883.24 2801l-14.26 4.65v-9.27z"/><path d="M-880.08 2801l-18.4 6v-11.97zm-16.45 3.3l10.14-3.3-10.13-3.28z" stroke="#000" stroke-width=".05"/><use xlink:href="#c" transform="matrix(1,0,0,1,-946.5643427717192,2790.9427893213233) translate(0.004999999999999005 14.800347222222223)"/><path d="M-920.66 2821.68h-19.84v-1.95h19.84zm39.66-.63h-7.65v-1.95h7.65z" stroke="#000" stroke-width=".05"/><path d="M-941.5 2825.34l-14.26-4.63 14.26-4.63z"/><path d="M-940.52 2826.7l-18.4-6 18.4-5.97zm-12.1-6l10.15 3.3v-6.6zM-880 2821.05h-1.03v-1.96h1.03z" stroke="#000" stroke-width=".05"/><use xlink:href="#d" transform="matrix(1,0,0,1,-920.6602456873103,2810.000396690276) translate(0.004999999999999005 14.800347222222223)"/><path d="M-925.46 3020.97h-16.04v-1.94h16.04zm43.46 0h-11.46v-1.94H-882z" stroke="#000" stroke-width=".05"/><path d="M-942.5 3024.64l-14.26-4.64 14.26-4.64z"/><path d="M-941.52 3025.98l-18.4-5.98 18.4-5.98zm-12.1-5.98l10.15 3.3v-6.6z" stroke="#000" stroke-width=".05"/><path d="M-881 3020.97h-1.03v-1.94h1.03z"/><path stroke="#000" stroke-width=".05"/><use xlink:href="#b" transform="matrix(1,0,0,1,-925.4644384101762,3009.9305555555557) translate(0.004999999999999005 14.800347222222223)"/><path d="M-923.02 3040.97h-18.48v-1.94h18.48zm41.02 0h-9.02v-1.94h9.02z" stroke="#000" stroke-width=".05"/><path d="M-942.5 3044.64l-14.26-4.64 14.26-4.64z"/><path d="M-941.52 3045.98l-18.4-5.98 18.4-5.98zm-12.1-5.98l10.15 3.3v-6.6z" stroke="#000" stroke-width=".05"/><path d="M-881 3040.97h-1.03v-1.94h1.03z"/><path stroke="#000" stroke-width=".05"/><use xlink:href="#c" transform="matrix(1,0,0,1,-923.0213254434498,3029.9305555555557) translate(0.004999999999999005 14.800347222222223)"/><path d="M-948.5 3061.05h-8.97v-1.96h8.97zm50 0h-18v-1.96h18z" stroke="#000" stroke-width=".05"/><path d="M-957.44 3061.05h-1.03v-1.96h1.03z" stroke="#000" stroke-width=".05"/><path d="M-883.24 3060.07l-14.26 4.63v-9.26z"/><path d="M-880.08 3060.07l-18.4 5.98v-11.96zm-16.45 3.3l10.14-3.3-10.13-3.3z" stroke="#000" stroke-width=".05"/><use xlink:href="#d" transform="matrix(1,0,0,1,-948.4991694379411,3050.000396690276) translate(0.004999999999999005 14.800347222222223)"/><path d="M933.46 2780.2h-9.8v-1.95h9.8zm49.16 0h-17.16v-1.95h17.16z" stroke="#000" stroke-width=".05"/><path d="M923.68 2780.2h-1.03v-1.95h1.03z"/><path stroke="#000" stroke-width=".05"/><path d="M997.88 2779.22l-14.26 4.64v-9.27z"/><path d="M1001.04 2779.22l-18.4 5.98v-11.95zm-16.45 3.3l10.13-3.3-10.14-3.3z" stroke="#000" stroke-width=".05"/><use xlink:href="#b" transform="matrix(1,0,0,1,933.4570023770175,2769.1547209827004) translate(0.004999999999999005 14.800347222222223)"/><path d="M959.23 2820.97H938.5v-1.94h20.73zm39.77 0h-7.77v-1.94H999z" stroke="#000" stroke-width=".05"/><path d="M937.5 2824.64l-14.26-4.64 14.26-4.64z"/><path d="M938.48 2825.98l-18.4-5.98 18.4-5.98zm-12.1-5.98l10.15 3.3v-6.6zM1000 2820.97h-1.03v-1.94h1.03z" stroke="#000" stroke-width=".05"/><use xlink:href="#d" transform="matrix(1,0,0,1,959.2278380790209,2809.9305555555557) translate(0.004999999999999005 14.800347222222223)"/><path d="M956.3 3020.2H939.6v-1.95h16.67zm43.82 0H988.3v-1.95h11.82z" stroke="#000" stroke-width=".05"/><path d="M938.62 3023.86l-14.26-4.64 14.26-4.63z"/><path d="M939.6 3025.2l-18.4-5.98 18.4-5.97zm-12.1-5.98l10.15 3.3v-6.6zM1001.12 3020.2h-1.03v-1.95h1.02z" stroke="#000" stroke-width=".05"/><use xlink:href="#b" transform="matrix(1,0,0,1,956.294708689578,3009.1547209827004) translate(0.004999999999999005 14.800347222222223)"/><path d="M959.27 3041.2h-18.12v-1.94h18.12zm40.85 0h-8.84v-1.94h8.84z" stroke="#000" stroke-width=".05"/><path d="M940.15 3044.87l-14.26-4.63 14.25-4.64z"/><path d="M941.13 3046.2l-18.4-5.96 18.4-5.98zm-12.1-5.96l10.15 3.3v-6.6zM1001.12 3041.2h-1.03v-1.94h1.02z" stroke="#000" stroke-width=".05"/><use xlink:href="#c" transform="matrix(1,0,0,1,959.273470478206,3030.166954748468) translate(0.004999999999999005 14.800347222222223)"/><path d="M932.62 3060.27h-8.97v-1.95h8.97zm50 0h-18v-1.95h18z" stroke="#000" stroke-width=".05"/><path d="M923.68 3060.27h-1.03v-1.95h1.03z"/><path stroke="#000" stroke-width=".05"/><path d="M997.88 3059.3l-14.26 4.63v-9.27z"/><path d="M1001.04 3059.3l-18.4 5.97v-11.95zm-16.45 3.3l10.13-3.3-10.14-3.3z" stroke="#000" stroke-width=".05"/><use xlink:href="#d" transform="matrix(1,0,0,1,932.6202540446419,3049.2245621174206) translate(0.004999999999999005 14.800347222222223)"/><path d="M841.12 2720h80.53v399.22h-80.53z" stroke="#000" stroke-width="2" fill="#fff"/><use xlink:href="#a" transform="matrix(1,0,0,1,846.119423482583,2725) translate(6.611111111111125 199.57291666666666)"/><path d="M-339.47 2720h100v159.22h-100z" stroke="#000" stroke-width="2" fill="#fff"/><use xlink:href="#e" transform="matrix(1,0,0,1,-334.4675211782491,2725) translate(22.074074074074083 76.29166666666666)"/><path d="M300.53 2720h100v159.22h-100z" stroke="#000" stroke-width="2" fill="#fff"/><use xlink:href="#f" transform="matrix(1,0,0,1,305.53247882175083,2725) translate(22.833333333333343 76.29166666666666)"/><g fill="none"><path d="M40.53 2661v518"/><path d="M40.53 2661v2m0 8.04v4m0 8.05v4m0 8.03v4.02m0 8.03v4m0 8.04v4.02m0 8.03v4.02m0 8.02v4m0 8.04v4.02m0 8.03v4.03m0 8.03v4m0 8.04v4.02m0 8.03v4.02m0 8.03v4m0 8.04v4.02m0 8.03v4m0 8.04v4m0 8.04v4.02m0 8.03v4m0 8.05v4m0 8.04v4.02m0 8.03v4m0 8.05v4m0 8.04v4.02m0 8.03v4.02m0 8.04v4m0 8.04v4.02m0 8.03v4m0 8.04v4m0 8.04v4.02m0 8.03v4m0 8.03v4.02m0 8.03v4.02m0 8.03v4m0 8.04v4.02m0 8.02v4.02m0 8.03v4m0 8.04v4.03m0 8.03v4.02m0 8.03v4.02m0 8.03v4.02m0 8.03v4m0 8.05v4m0 8.04v2" stroke="#000" stroke-width="2" stroke-linecap="round"/></g><path d="M-237.47 2760.6h78.5" stroke="#000" stroke-width="2" fill="none"/><path d="M-237.44 2761.6h-1.03v-1.96h1.03z" stroke="#000" stroke-width=".05"/><path d="M-143.7 2760.6l-14.27 4.65v-9.27z" stroke="#000" stroke-width="2"/><path d="M-158.97 2781.7h-78.5v-1.95h78.5z" stroke="#000" stroke-width=".05"/><path d="M-237.44 2781.7h-1.03v-1.95h1.03z"/><path stroke="#000" stroke-width=".05"/><path d="M-143.7 2780.72l-14.27 4.64v-9.27z"/><path d="M-140.55 2780.72l-18.4 5.98v-11.95zm-16.44 3.3l10.14-3.3-10.13-3.3z" stroke="#000" stroke-width=".05"/><path d="M222.53 2779.96h58.5" stroke="#000" stroke-width="2" fill="none"/><path d="M222.56 2780.93h-1.03v-1.95h1.03z" stroke="#000" stroke-width=".05"/><path d="M296.3 2779.96l-14.27 4.63v-9.28z" stroke="#000" stroke-width="2"/><path d="M-37.47 2761.24h138.5" stroke="#000" stroke-width="2" fill="none"/><path d="M-37.44 2762.22h-1.03v-1.95h1.03z" stroke="#000" stroke-width=".05"/><path d="M116.3 2761.24l-14.27 4.64v-9.27z" stroke="#000" stroke-width="2"/><path d="M-419.74 2761.27h-17.73v-1.95h17.74zm60.77 0h-28.76v-1.95h28.76z" stroke="#000" stroke-width=".05"/><path d="M-437.44 2761.27h-1.03v-1.95h1.03z"/><path stroke="#000" stroke-width=".05"/><path d="M-343.7 2760.3l-14.27 4.63v-9.27z"/><path d="M-340.55 2760.3l-18.4 5.97v-11.96zm-16.44 3.28l10.14-3.3L-357 2757z" stroke="#000" stroke-width=".05"/><use xlink:href="#g" transform="matrix(1,0,0,1,-406.027639867557,2750.22217822985) translate(0.005 14.800347222222223)"/><use xlink:href="#c" transform="matrix(1,0,0,1,-419.7348329501421,2750.22217822985) translate(0.004999999999999005 14.800347222222223)"/><path d="M-421.17 2781.97h-16.3v-1.94h16.3zm62.2 0h-30.2v-1.94h30.2z" stroke="#000" stroke-width=".05"/><path d="M-437.44 2781.97h-1.03v-1.94h1.03z"/><path stroke="#000" stroke-width=".05"/><path d="M-343.7 2781l-14.27 4.64v-9.28z"/><path d="M-340.55 2781l-18.4 5.98v-11.96zm-16.44 3.3l10.14-3.3-10.13-3.3z" stroke="#000" stroke-width=".05"/><use xlink:href="#h" transform="matrix(1,0,0,1,-421.16702745283834,2770.9305555555557) translate(0.004999999999999005 14.800347222222223)"/><path d="M402.53 2761.18h59.5" stroke="#000" stroke-width="2" fill="none"/><path d="M402.56 2762.15h-1.03v-1.95h1.03z" stroke="#000" stroke-width=".05"/><path d="M477.3 2761.18l-14.27 4.63v-9.26z" stroke="#000" stroke-width="2"/><path d="M402.53 2781.54h58.5" stroke="#000" stroke-width="2" fill="none"/><path d="M402.56 2782.5h-1.03v-1.94h1.03z" stroke="#000" stroke-width=".05"/><path d="M476.3 2781.54l-14.27 4.63v-9.27z" stroke="#000" stroke-width="2"/><path d="M-158.97 2800.6h-78.5v-1.96h78.5z" stroke="#000" stroke-width=".05"/><path d="M-237.44 2800.6h-1.03v-1.96h1.03z"/><path stroke="#000" stroke-width=".05"/><path d="M-143.7 2799.6l-14.27 4.65v-9.27z"/><path d="M-140.55 2799.6l-18.4 6v-11.96zm-16.44 3.3l10.14-3.3-10.13-3.28zM-141.47 2860.92h-78.5v-1.95h78.5z" stroke="#000" stroke-width=".05"/><path d="M-140.47 2860.92h-1.02v-1.95h1.03z"/><path stroke="#000" stroke-width=".05"/><path d="M-220.97 2864.58l-14.26-4.63 14.26-4.64z"/><path d="M-220 2865.92l-18.4-5.97 18.4-5.98zm-12.08-5.97l10.14 3.3v-6.6zM-422.03 2801.97h-15.44v-1.94h15.44zm63.06 0h-31.05v-1.94h31.05z" stroke="#000" stroke-width=".05"/><path d="M-437.44 2801.97h-1.03v-1.94h1.03z"/><path stroke="#000" stroke-width=".05"/><path d="M-343.7 2801l-14.27 4.64v-9.28z"/><path d="M-340.55 2801l-18.4 5.98v-11.96zm-16.44 3.3l10.14-3.3-10.13-3.3z" stroke="#000" stroke-width=".05"/><use xlink:href="#i" transform="matrix(1,0,0,1,-422.0302440342237,2790.9305555555557) translate(0.004999999999999005 14.800347222222223)"/><path d="M-139.47 2720.78h100V2880h-100z" stroke="#000" stroke-width="2" fill="#fff"/><use xlink:href="#j" transform="matrix(1,0,0,1,-134.46752117824917,2725.7758345728553) translate(25.425925925925934 76.29166666666666)"/><path d="M120.53 2720.78h100V2880h-100z" stroke="#000" stroke-width="2" fill="#fff"/><use xlink:href="#j" transform="matrix(1,0,0,1,125.53247882175094,2725.7758345728553) translate(25.425925925925934 76.29166666666666)"/><path d="M-37.47 2780.76h138.5" stroke="#000" stroke-width="2" fill="none"/><path d="M-37.44 2781.73h-1.03v-1.95h1.03z" stroke="#000" stroke-width=".05"/><path d="M116.3 2780.76l-14.27 4.63v-9.28z" stroke="#000" stroke-width="2"/><path d="M101.03 2801.36h-138.5v-1.95h138.5z" stroke="#000" stroke-width=".05"/><path d="M-37.44 2801.36h-1.03v-1.95h1.03z"/><path stroke="#000" stroke-width=".05"/><path d="M116.3 2800.4l-14.27 4.62v-9.27z"/><path d="M119.45 2800.4l-18.4 5.96v-11.95zm-16.44 3.28l10.14-3.3-10.13-3.3zM-31.5 2840.33h-5.97v-1.95h5.96zm132.53 0H32.5v-1.95h68.53z" stroke="#000" stroke-width=".05"/><path d="M-37.44 2840.33h-1.03v-1.95h1.03z"/><path stroke="#000" stroke-width=".05"/><path d="M116.3 2839.36l-14.27 4.63v-9.28z"/><path d="M119.45 2839.36l-18.4 5.97v-11.95zm-16.44 3.3l10.14-3.3-10.13-3.3z" stroke="#000" stroke-width=".05"/><use xlink:href="#k" transform="matrix(1,0,0,1,-31.507208426520776,2829.286701935959) translate(0.005000000000002558 14.800347222222223)"/><path d="M118.53 2860.97h-139.5v-1.94h139.5z" stroke="#000" stroke-width=".05"/><path d="M119.53 2860.97h-1.02v-1.94h1.03z"/><path stroke="#000" stroke-width=".05"/><path d="M-21.97 2864.64l-14.26-4.64 14.26-4.64z"/><path d="M-21 2865.98l-18.4-5.98 18.4-5.98zm-12.08-5.98l10.14 3.3v-6.6z" stroke="#000" stroke-width=".05"/><path d="M222.53 2760.46h58.5" stroke="#000" stroke-width="2" fill="none"/><path d="M222.56 2761.44h-1.03v-1.95h1.03z" stroke="#000" stroke-width=".05"/><path d="M296.3 2760.46l-14.27 4.64v-9.27z" stroke="#000" stroke-width="2"/><path d="M222.53 2800.4h58.5" stroke="#000" stroke-width="2" fill="none"/><path d="M222.56 2801.36h-1.03v-1.95h1.03z" stroke="#000" stroke-width=".05"/><path d="M296.3 2800.4l-14.27 4.62v-9.27z" stroke="#000" stroke-width="2"/><path d="M298.53 2858.24H260.6a.06.06 0 0 1-.07-.05.06.06 0 0 0-.05-.07h-20.45" stroke="#000" stroke-width="2" fill="none"/><path d="M299.53 2859.22h-1.02v-1.95h1.03z" stroke="#000" stroke-width=".05"/><path d="M224.77 2858.13l14.26-4.63v9.27z" stroke="#000" stroke-width="2"/><path d="M101.03 2820.7h-138.5v-1.95h138.5z" stroke="#000" stroke-width=".05"/><path d="M-37.44 2820.7h-1.03v-1.95h1.03z"/><path stroke="#000" stroke-width=".05"/><path d="M116.3 2819.73l-14.27 4.63v-9.27z"/><path d="M119.45 2819.73l-18.4 5.97v-11.95zm-16.44 3.3l10.14-3.3-10.13-3.3zM-221.37 2819.48h-16.1v-1.95h16.1zm62.4 0h-30.4v-1.95h30.4z" stroke="#000" stroke-width=".05"/><path d="M-237.44 2819.48h-1.03v-1.95h1.03z"/><path stroke="#000" stroke-width=".05"/><path d="M-143.7 2818.5l-14.27 4.64v-9.27z"/><path d="M-140.55 2818.5l-18.4 5.98v-11.95zm-16.44 3.3l10.14-3.3-10.13-3.3z" stroke="#000" stroke-width=".05"/><use xlink:href="#l" transform="matrix(1,0,0,1,-221.37197115025822,2808.437746020215) translate(0.004999999999999005 14.800347222222223)"/><path d="M222.53 2819.55h58.5" stroke="#000" stroke-width="2" fill="none"/><path d="M222.56 2820.52h-1.03v-1.95h1.03z" stroke="#000" stroke-width=".05"/><path d="M296.3 2819.55l-14.27 4.63v-9.27z" stroke="#000" stroke-width="2"/><path d="M480.53 2720.78h100V2880h-100z" stroke="#000" stroke-width="2" fill="#fff"/><use xlink:href="#m" transform="matrix(1,0,0,1,485.53247882175083,2725.7758345728553) translate(12.111111111111128 76.29166666666666)"/><path d="M402.53 2799.6h58.5" stroke="#000" stroke-width="2" fill="none"/><path d="M402.56 2800.6h-1.03v-1.96h1.03z" stroke="#000" stroke-width=".05"/><path d="M476.3 2799.6l-14.27 4.65v-9.27z" stroke="#000" stroke-width="2"/><path d="M478.53 2860.97h-58.5" stroke="#000" stroke-width="2" fill="none"/><path d="M479.53 2861.95h-1.02V2860h1.03z" stroke="#000" stroke-width=".05"/><path d="M404.77 2860.97l14.26-4.63v9.27z" stroke="#000" stroke-width="2"/><path d="M-539.47 2720h100v159.22h-100z" stroke="#000" stroke-width="2" fill="#fff"/><use xlink:href="#n" transform="matrix(1,0,0,1,-534.4675211782492,2725) translate(11.722222222222236 76.29166666666666)"/><path d="M-414.2 2861.2h-5.77v-1.96h5.76zm72.73 0h-8.72v-1.96h8.73z" stroke="#000" stroke-width=".05"/><path d="M-340.47 2861.2h-1.02v-1.96h1.03z"/><path stroke="#000" stroke-width=".05"/><path d="M-420.97 2864.85l-14.26-4.63 14.26-4.64z"/><path d="M-420 2866.2l-18.4-5.98 18.4-5.98zm-12.08-5.98l10.14 3.3v-6.6z" stroke="#000" stroke-width=".05"/><use xlink:href="#o" transform="matrix(1,0,0,1,-414.20557297730136,2850.1475105385716) translate(0.005000000000002558 14.800347222222223)"/><path d="M590.13 2780.97h-8.6v-1.94h8.6zm50.9 0h-18.9v-1.94h18.9z" stroke="#000" stroke-width=".05"/><path d="M581.56 2780.97h-1.03v-1.94h1.03z" stroke="#000" stroke-width=".05"/><path d="M656.3 2780l-14.27 4.64v-9.28z"/><path d="M659.45 2780l-18.4 5.98v-11.96zm-16.44 3.3l10.14-3.3-10.13-3.3z" stroke="#000" stroke-width=".05"/><use xlink:href="#b" transform="matrix(1,0,0,1,590.1350444391227,2769.9305555555557) translate(0.004999999999999005 14.800347222222223)"/><path d="M641.03 2799.4v1.96l-20-.03v-1.94zm-59.5 1.93v-1.95h7.5v1.95z" stroke="#000" stroke-width=".05"/><path d="M581.56 2801.33h-1.03v-1.95h1.03z" stroke="#000" stroke-width=".05"/><path d="M656.3 2800.4l-14.27 4.62v-9.27z"/><path d="M659.45 2800.4l-18.4 5.96v-11.95zm-16.44 3.28l10.14-3.3-10.13-3.3z" stroke="#000" stroke-width=".05"/><use xlink:href="#c" transform="matrix(1,0,0,1,589.0156904684281,2790.2891911368615) translate(0.004999999999999005 14.800347222222223)"/><path d="M619.05 2820.52h-20.02v-1.95h20.02zm39.48 0h-7.47v-1.95h7.47z" stroke="#000" stroke-width=".05"/><path d="M659.53 2820.52h-1.02v-1.95h1.03z"/><path stroke="#000" stroke-width=".05"/><path d="M598.03 2824.18l-14.26-4.63 14.26-4.64z"/><path d="M599 2825.53l-18.4-5.98 18.4-5.98zm-12.08-5.98l10.14 3.3v-6.6z" stroke="#000" stroke-width=".05"/><use xlink:href="#d" transform="matrix(1,0,0,1,619.053131256709,2809.478735114576) translate(0.004999999999999005 14.800347222222223)"/><path d="M-610.83 2780.97h-7.64v-1.94h7.64zm51.86 0h-19.86v-1.94h19.86z" stroke="#000" stroke-width=".05"/><path d="M-618.44 2780.97h-1.03v-1.94h1.03z" stroke="#000" stroke-width=".05"/><path d="M-543.7 2780l-14.27 4.64v-9.28z"/><path d="M-540.55 2780l-18.4 5.98v-11.96zm-16.44 3.3l10.14-3.3-10.13-3.3z" stroke="#000" stroke-width=".05"/><use xlink:href="#b" transform="matrix(1,0,0,1,-610.8315762829294,2769.9305555555557) translate(0.004999999999999005 14.800347222222223)"/><path d="M-558.97 2800.04v1.95l-17.74-.03v-1.95zm-58.5 1.32v-1.95h8.75v1.96z" stroke="#000" stroke-width=".05"/><path d="M-617.44 2801.36h-1.03v-1.95h1.03z"/><path stroke="#000" stroke-width=".05"/><path d="M-543.7 2801l-14.27 4.65v-9.27z"/><path d="M-540.55 2801l-18.4 6v-11.97zm-16.44 3.3l10.14-3.3-10.13-3.28z" stroke="#000" stroke-width=".05"/><use xlink:href="#c" transform="matrix(1,0,0,1,-608.7196145651384,2790.3184728419833) translate(0.004999999999999005 14.800347222222223)"/><path d="M-581.13 2821.68h-19.84v-1.95h19.84zm39.66-.63h-7.65v-1.95h7.65z" stroke="#000" stroke-width=".05"/><path d="M-601.97 2825.34l-14.26-4.63 14.26-4.63z"/><path d="M-601 2826.7l-18.4-6 18.4-5.97zm-12.08-6l10.14 3.3v-6.6zM-540.47 2821.05h-1.02v-1.96h1.03z" stroke="#000" stroke-width=".05"/><use xlink:href="#d" transform="matrix(1,0,0,1,-581.1277668655597,2810.000396690276) translate(0.004999999999999005 14.800347222222223)"/><path d="M660.53 2720.78h100V2880h-100z" stroke="#000" stroke-width="2" fill="#fff"/><use xlink:href="#p" transform="matrix(1,0,0,1,665.5324788217508,2725.7758345728553) translate(11.703703703703717 76.29166666666666)"/><path d="M-719.47 2720.78h100V2880h-100z" stroke="#000" stroke-width="2" fill="#fff"/><use xlink:href="#q" transform="matrix(1,0,0,1,-714.4675211782492,2725.7758345728553) translate(10.944444444444457 76.29166666666666)"/><path d="M770.13 2780.97h-8.6v-1.94h8.6zm50.9 0h-18.9v-1.94h18.9z" stroke="#000" stroke-width=".05"/><path d="M761.56 2780.97h-1.03v-1.94h1.03z" stroke="#000" stroke-width=".05"/><path d="M836.3 2780l-14.27 4.64v-9.28z"/><path d="M839.45 2780l-18.4 5.98v-11.96zm-16.44 3.3l10.14-3.3-10.13-3.3z" stroke="#000" stroke-width=".05"/><use xlink:href="#b" transform="matrix(1,0,0,1,770.1350444391228,2769.9305555555557) translate(0.004999999999999005 14.800347222222223)"/><path d="M769 2801.33h-7.47v-1.95H769zm52.03 0H801v-1.95h20.03z" stroke="#000" stroke-width=".05"/><path d="M761.56 2801.33h-1.03v-1.95h1.03z" stroke="#000" stroke-width=".05"/><path d="M836.3 2800.36l-14.27 4.63v-9.28z"/><path d="M839.45 2800.36l-18.4 5.98v-11.96zm-16.44 3.3l10.14-3.3-10.13-3.3z" stroke="#000" stroke-width=".05"/><use xlink:href="#c" transform="matrix(1,0,0,1,769.0066180534593,2790.2891911368615) translate(0.004999999999999005 14.800347222222223)"/><path d="M799.05 2820.52h-20.02v-1.95h20.02zm39.48 0h-7.47v-1.95h7.47z" stroke="#000" stroke-width=".05"/><path d="M839.53 2820.52h-1.02v-1.95h1.03z" stroke="#000" stroke-width=".05"/><path d="M778.03 2824.18l-14.26-4.63 14.26-4.64z"/><path d="M779 2825.53l-18.4-5.98 18.4-5.98zm-12.08-5.98l10.14 3.3v-6.6z" stroke="#000" stroke-width=".05"/><use xlink:href="#d" transform="matrix(1,0,0,1,799.0531312567089,2809.478735114576) translate(0.004999999999999005 14.800347222222223)"/><path d="M-789.87 2780.97h-8.6v-1.94h8.6zm50.9 0h-18.9v-1.94h18.9z" stroke="#000" stroke-width=".05"/><path d="M-798.44 2780.97h-1.03v-1.94h1.03z" stroke="#000" stroke-width=".05"/><path d="M-723.7 2780l-14.27 4.64v-9.28z"/><path d="M-720.55 2780l-18.4 5.98v-11.96zm-16.44 3.3l10.14-3.3-10.13-3.3z" stroke="#000" stroke-width=".05"/><use xlink:href="#b" transform="matrix(1,0,0,1,-789.8649555608771,2769.9305555555557) translate(0.004999999999999005 14.800347222222223)"/><path d="M-791 2801.33h-7.47v-1.95h7.48zm52.03 0H-759v-1.95h20.03z" stroke="#000" stroke-width=".05"/><path d="M-798.44 2801.33h-1.03v-1.95h1.03z" stroke="#000" stroke-width=".05"/><path d="M-723.7 2800.36l-14.27 4.63v-9.28z"/><path d="M-720.55 2800.36l-18.4 5.98v-11.96zm-16.44 3.3l10.14-3.3-10.13-3.3z" stroke="#000" stroke-width=".05"/><use xlink:href="#c" transform="matrix(1,0,0,1,-790.9933819465406,2790.2891911368615) translate(0.004999999999999005 14.800347222222223)"/><path d="M-760.95 2820.52h-20.02v-1.95h20.02zm39.48 0h-7.47v-1.95h7.47z" stroke="#000" stroke-width=".05"/><path d="M-720.47 2820.52h-1.02v-1.95h1.03z" stroke="#000" stroke-width=".05"/><path d="M-781.97 2824.18l-14.26-4.63 14.26-4.64z"/><path d="M-781 2825.53l-18.4-5.98 18.4-5.98zm-12.08-5.98l10.14 3.3v-6.6z" stroke="#000" stroke-width=".05"/><use xlink:href="#d" transform="matrix(1,0,0,1,-760.946868743291,2809.478735114576) translate(0.004999999999999005 14.800347222222223)"/><path d="M-338.47 2960h100v159.22h-100z" stroke="#000" stroke-width="2" fill="#fff"/><use xlink:href="#f" transform="matrix(1,0,0,1,-333.46752117824894,2965) translate(22.833333333333343 76.29166666666666)"/><path d="M301.53 2960h100v159.22h-100z" stroke="#000" stroke-width="2" fill="#fff"/><use xlink:href="#f" transform="matrix(1,0,0,1,306.53247882175106,2965) translate(22.833333333333343 76.29166666666666)"/><path d="M-218.97 3000.6h78.5" stroke="#000" stroke-width="2" fill="none"/><path d="M-234.23 3000.6l14.26-4.62v9.27z" stroke="#000" stroke-width="2"/><path d="M-139.47 3001.6h-1.02v-1.96h1.03z" stroke="#000" stroke-width=".05"/><path d="M-218.97 3020.72h78.5" stroke="#000" stroke-width="2" fill="none"/><path d="M-234.23 3020.72l14.26-4.63v9.26z" stroke="#000" stroke-width="2"/><path d="M-139.47 3021.7h-1.02v-1.95h1.03zM299.53 3020.93h-58.5v-1.95h58.5z" stroke="#000" stroke-width=".05"/><path d="M240.03 3024.6l-14.26-4.64 14.26-4.64z"/><path d="M241 3025.94l-18.4-5.98 18.4-5.98zm-12.08-5.98l10.14 3.3v-6.6z" stroke="#000" stroke-width=".05"/><path d="M300.53 3020.93h-1.02v-1.95h1.03z"/><path stroke="#000" stroke-width=".05"/><path d="M-18.97 3001.24h138.5" stroke="#000" stroke-width="2" fill="none"/><path d="M-34.23 3001.24l14.26-4.63v9.28z" stroke="#000" stroke-width="2"/><path d="M120.53 3002.22h-1.02v-1.95h1.03z" stroke="#000" stroke-width=".05"/><path d="M-418.97 3000.3h78.5" stroke="#000" stroke-width="2" fill="none"/><path d="M-434.23 3000.3l14.26-4.64v9.27z" stroke="#000" stroke-width="2"/><path d="M-339.47 3001.27h-1.02v-1.95h1.03z" stroke="#000" stroke-width=".05"/><path d="M-418.97 3021h78.5" stroke="#000" stroke-width="2" fill="none"/><path d="M-434.23 3021l14.26-4.64v9.28z" stroke="#000" stroke-width="2"/><path d="M-339.47 3021.97h-1.02v-1.94h1.03zM433.37 3002.15h-12.34v-1.95h12.34zm47.16 0h-15.16v-1.95h15.16z" stroke="#000" stroke-width=".05"/><path d="M420.03 3005.8l-14.26-4.62 14.26-4.64z"/><path d="M421 3007.16l-18.4-5.98 18.4-5.98zm-12.08-5.98l10.14 3.3v-6.6zM481.53 3002.15h-1.02v-1.95h1.03z" stroke="#000" stroke-width=".05"/><use xlink:href="#c" transform="matrix(1,0,0,1,433.36732902939394,2991.1095616463945) translate(0.004999999999999005 14.800347222222223)"/><path d="M433.38 3022.5h-12.35v-1.94h12.35zm46.15 0h-14.15v-1.94h14.15z" stroke="#000" stroke-width=".05"/><path d="M420.03 3026.17l-14.26-4.63 14.26-4.64z"/><path d="M421 3027.5l-18.4-5.96 18.4-5.98zm-12.08-5.96l10.14 3.3v-6.6z" stroke="#000" stroke-width=".05"/><path d="M480.53 3022.5h-1.02v-1.94h1.03z"/><path stroke="#000" stroke-width=".05"/><use xlink:href="#h" transform="matrix(1,0,0,1,433.376192397848,3011.4681972277003) translate(0.004999999999999005 14.800347222222223)"/><path d="M-218.97 3039.6h78.5" stroke="#000" stroke-width="2" fill="none"/><path d="M-234.23 3039.6l14.26-4.62v9.27z" stroke="#000" stroke-width="2"/><path d="M-139.47 3040.6h-1.02v-1.96h1.03z" stroke="#000" stroke-width=".05"/><path d="M-157.97 3099.95h-78.5" stroke="#000" stroke-width="2" fill="none"/><path d="M-142.7 3099.95l-14.27 4.63v-9.27z" stroke="#000" stroke-width="2"/><path d="M-236.44 3100.92h-1.03v-1.95h1.03z" stroke="#000" stroke-width=".05"/><path d="M-418.97 3041h78.5" stroke="#000" stroke-width="2" fill="none"/><path d="M-434.23 3041l14.26-4.64v9.28z" stroke="#000" stroke-width="2"/><path d="M-339.47 3041.97h-1.02v-1.94h1.03z" stroke="#000" stroke-width=".05"/><path d="M-138.47 2960.78h100V3120h-100z" stroke="#000" stroke-width="2" fill="#fff"/><use xlink:href="#j" transform="matrix(1,0,0,1,-133.46752117824894,2965.7758345728553) translate(25.425925925925934 76.29166666666666)"/><path d="M121.53 2960.78h100V3120h-100z" stroke="#000" stroke-width="2" fill="#fff"/><use xlink:href="#j" transform="matrix(1,0,0,1,126.53247882175106,2965.7758345728553) translate(25.425925925925934 76.29166666666666)"/><path d="M-18.97 3020.76h138.5" stroke="#000" stroke-width="2" fill="none"/><path d="M-34.23 3020.76l14.26-4.64v9.27z" stroke="#000" stroke-width="2"/><path d="M120.53 3021.73h-1.02v-1.95h1.03zM119.53 3041.36h-138.5v-1.95h138.5z" stroke="#000" stroke-width=".05"/><path d="M-19.97 3045.02l-14.26-4.63 14.26-4.65z"/><path d="M-19 3046.36l-18.4-5.97 18.4-6zm-12.08-5.97l10.14 3.28v-6.6z" stroke="#000" stroke-width=".05"/><path d="M120.53 3041.36h-1.02v-1.95h1.03z"/><path stroke="#000" stroke-width=".05"/><path d="M51.95 3080.33h-70.92v-1.95h70.92zm67.58 0h-3.57v-1.95h3.57z" stroke="#000" stroke-width=".05"/><path d="M-19.97 3084l-14.26-4.64 14.26-4.64z"/><path d="M-19 3085.33l-18.4-5.97 18.4-5.98zm-12.08-5.97l10.14 3.3v-6.6z" stroke="#000" stroke-width=".05"/><path d="M120.53 3080.33h-1.02v-1.95h1.03z"/><path stroke="#000" stroke-width=".05"/><use xlink:href="#k" transform="matrix(1,0,0,1,51.948695500225,3069.286701935959) translate(0.005000000000002558 14.800347222222223)"/><path d="M102.03 3041.36h-138.5v-1.95h138.5z" stroke="#000" stroke-width=".05"/><path d="M117.3 3040.4l-14.27 4.62v-9.27z"/><path d="M120.45 3040.4l-18.4 5.96v-11.95zm-16.44 3.28l10.14-3.3-10.13-3.3z" stroke="#000" stroke-width=".05"/><path d="M-36.44 3041.36h-1.03v-1.95h1.03z"/><path stroke="#000" stroke-width=".05"/><path d="M241.03 3000.46h58.5" stroke="#000" stroke-width="2" fill="none"/><path d="M225.77 3000.46l14.26-4.63v9.27z" stroke="#000" stroke-width="2"/><path d="M300.53 3001.44h-1.02v-1.95h1.03zM299.53 3041.36h-58.5v-1.95h58.5z" stroke="#000" stroke-width=".05"/><path d="M240.03 3045.02l-14.26-4.63 14.26-4.65z"/><path d="M241 3046.36l-18.4-5.97 18.4-6zm-12.08-5.97l10.14 3.28v-6.6z" stroke="#000" stroke-width=".05"/><path d="M300.53 3041.36h-1.02v-1.95h1.03z"/><path stroke="#000" stroke-width=".05"/><path d="M261.96 3097.16l.1.1h19.97v1.96h-20.9l-.1-.1h-37.5v-1.96z" stroke="#000" stroke-width=".05"/><path d="M297.3 3098.24l-14.27 4.64v-9.27z"/><path d="M300.45 3098.24l-18.4 5.98v-11.96zm-16.44 3.3l10.14-3.3-10.13-3.3z" stroke="#000" stroke-width=".05"/><path d="M223.56 3099.1h-1.03v-1.94h1.03z"/><path stroke="#000" stroke-width=".05"/><path d="M119.53 3060.7h-138.5v-1.95h138.5z" stroke="#000" stroke-width=".05"/><path d="M-19.97 3064.36l-14.26-4.63 14.26-4.64z"/><path d="M-19 3065.7l-18.4-5.97 18.4-5.98zm-12.08-5.97l10.14 3.3v-6.6z" stroke="#000" stroke-width=".05"/><path d="M120.53 3060.7h-1.02v-1.95h1.03z"/><path stroke="#000" stroke-width=".05"/><path d="M-218.97 3058.5h78.5" stroke="#000" stroke-width="2" fill="none"/><path d="M-234.23 3058.5l14.26-4.63v9.27z" stroke="#000" stroke-width="2"/><path d="M-139.47 3059.48h-1.02v-1.95h1.03zM256.65 3060.52h-15.62v-1.95h15.62zm42.88 0h-10.88v-1.95h10.88z" stroke="#000" stroke-width=".05"/><path d="M240.03 3064.18l-14.26-4.63 14.26-4.64z"/><path d="M241 3065.53l-18.4-5.98 18.4-5.98zm-12.08-5.98l10.14 3.3v-6.6z" stroke="#000" stroke-width=".05"/><path d="M300.53 3060.52h-1.02v-1.95h1.03z"/><path stroke="#000" stroke-width=".05"/><use xlink:href="#l" transform="matrix(1,0,0,1,256.64746331502266,3049.477979583141) translate(0.004999999999999005 14.800347222222223)"/><path d="M481.53 2960.78h100V3120h-100z" stroke="#000" stroke-width="2" fill="#fff"/><use xlink:href="#m" transform="matrix(1,0,0,1,486.53247882175106,2965.7758345728553) translate(12.111111111111128 76.29166666666666)"/><path d="M433.37 3040.6h-12.34v-1.96h12.34zm46.16 0h-14.16v-1.96h14.16z" stroke="#000" stroke-width=".05"/><path d="M420.03 3044.25l-14.26-4.64 14.26-4.62z"/><path d="M421 3045.6l-18.4-6 18.4-5.96zm-12.08-6l10.14 3.3v-6.58z" stroke="#000" stroke-width=".05"/><path d="M480.53 3040.6h-1.02v-1.96h1.03z"/><path stroke="#000" stroke-width=".05"/><use xlink:href="#i" transform="matrix(1,0,0,1,433.36732902939394,3029.5426381426932) translate(0.004999999999999005 14.800347222222223)"/><path d="M462.03 3100.97h-58.5" stroke="#000" stroke-width="2" fill="none"/><path d="M477.3 3100.97l-14.27 4.64v-9.26z" stroke="#000" stroke-width="2"/><path d="M403.56 3101.95h-1.03V3100h1.03z" stroke="#000" stroke-width=".05"/><path d="M-538.47 2960h100v159.22h-100z" stroke="#000" stroke-width="2" fill="#fff"/><use xlink:href="#m" transform="matrix(1,0,0,1,-533.467521178249,2965) translate(12.111111111111128 76.29166666666666)"/><path d="M-427.77 3101.2h-8.7v-1.96h8.7zm69.8 0h-5.8v-1.96h5.8z" stroke="#000" stroke-width=".05"/><path d="M-342.7 3100.22l-14.27 4.63v-9.27z"/><path d="M-339.55 3100.22l-18.4 5.97v-11.96zm-16.44 3.3l10.14-3.3-10.13-3.3z" stroke="#000" stroke-width=".05"/><path d="M-436.44 3101.2h-1.03v-1.96h1.03z"/><path stroke="#000" stroke-width=".05"/><use xlink:href="#o" transform="matrix(1,0,0,1,-427.77526146686284,3090.1475105385716) translate(0.005000000000002558 14.800347222222223)"/><path d="M618.73 3020.97h-18.7v-1.94h18.7zm39.8 0h-7.8v-1.94h7.8z" stroke="#000" stroke-width=".05"/><path d="M599.03 3024.64l-14.26-4.64 14.26-4.64z"/><path d="M600 3025.98l-18.4-5.98 18.4-5.98zm-12.08-5.98l10.14 3.3v-6.6zM659.53 3020.97h-1.02v-1.94h1.03z" stroke="#000" stroke-width=".05"/><use xlink:href="#b" transform="matrix(1,0,0,1,618.7321800579879,3009.9305555555557) translate(0.004999999999999005 14.800347222222223)"/><path d="M658.53 3039.4v1.96h-7.8v-1.95zm-58.5 1.93v-1.95h18.7v1.95z" stroke="#000" stroke-width=".05"/><path d="M599.03 3045l-14.26-4.64 14.26-4.64z"/><path d="M600 3046.34l-18.4-5.98 18.4-5.98zm-12.08-5.98l10.14 3.3v-6.6z" stroke="#000" stroke-width=".05"/><path d="M659.53 3041.36h-1.02v-1.95h1.03z"/><path stroke="#000" stroke-width=".05"/><use xlink:href="#c" transform="matrix(1,0,0,1,618.7228708428482,3030.3184728419833) translate(0.004999999999999005 14.800347222222223)"/><path d="M594.38 3060.52h-11.85v-1.95h11.85zm46.65 0h-14.65v-1.95h14.65z" stroke="#000" stroke-width=".05"/><path d="M656.3 3059.55l-14.27 4.63v-9.27z"/><path d="M659.45 3059.55l-18.4 5.97v-11.95zm-16.44 3.3l10.14-3.3-10.13-3.3zM582.56 3060.52h-1.03v-1.95h1.03z" stroke="#000" stroke-width=".05"/><use xlink:href="#d" transform="matrix(1,0,0,1,594.3751121122369,3049.478735114576) translate(0.004999999999999005 14.800347222222223)"/><path d="M-583.93 3020.97h-16.04v-1.94h16.04zm43.46 0h-11.46v-1.94h11.46z" stroke="#000" stroke-width=".05"/><path d="M-600.97 3024.64l-14.26-4.64 14.26-4.64z"/><path d="M-600 3025.98l-18.4-5.98 18.4-5.98zm-12.08-5.98l10.14 3.3v-6.6zM-539.47 3020.97h-1.02v-1.94h1.03z" stroke="#000" stroke-width=".05"/><use xlink:href="#b" transform="matrix(1,0,0,1,-583.9319595884251,3009.9305555555557) translate(0.004999999999999005 14.800347222222223)"/><path d="M-540.47 3040.04v1.95h-9.48v-1.96zm-59.5.55v-1.96h18.02v1.95z" stroke="#000" stroke-width=".05"/><path d="M-600.97 3044.25l-14.26-4.64 14.26-4.62z"/><path d="M-600 3045.6l-18.4-6 18.4-5.96zm-12.08-6l10.14 3.3v-6.58zM-539.47 3042h-1.02v-1.96h1.03z" stroke="#000" stroke-width=".05"/><use xlink:href="#c" transform="matrix(1,0,0,1,-581.9499876340085,3030.9427893213233) translate(0.004999999999999005 14.800347222222223)"/><path d="M-607.97 3061.05h-8.96v-1.96h8.96zm50 0h-18v-1.96h18z" stroke="#000" stroke-width=".05"/><path d="M-616.9 3061.05h-1.03v-1.96h1.02z" stroke="#000" stroke-width=".05"/><path d="M-542.7 3060.07l-14.27 4.63v-9.26z"/><path d="M-539.55 3060.07l-18.4 5.98v-11.96zm-16.44 3.3l10.14-3.3-10.13-3.3z" stroke="#000" stroke-width=".05"/><use xlink:href="#d" transform="matrix(1,0,0,1,-607.9666906161902,3050.000396690276) translate(0.004999999999999005 14.800347222222223)"/><path d="M-418.97 2980.13h78.5" stroke="#000" stroke-width="2" fill="none"/><path d="M-434.23 2980.13l14.26-4.63v9.27z" stroke="#000" stroke-width="2"/><path d="M-339.47 2981.1h-1.02v-1.94h1.03z" stroke="#000" stroke-width=".05"/><path d="M-218.97 2978.93h78.5" stroke="#000" stroke-width="2" fill="none"/><path d="M-234.23 2978.93l14.26-4.64v9.26z" stroke="#000" stroke-width="2"/><path d="M-139.47 2979.9h-1.02v-1.95h1.03z" stroke="#000" stroke-width=".05"/><path d="M-18.97 2978.93h138.5" stroke="#000" stroke-width="2" fill="none"/><path d="M-34.23 2978.93l14.26-4.64v9.26z" stroke="#000" stroke-width="2"/><path d="M120.53 2979.9h-1.02v-1.95h1.03z" stroke="#000" stroke-width=".05"/><path d="M241.03 2978.93h58.5" stroke="#000" stroke-width="2" fill="none"/><path d="M225.77 2978.93l14.26-4.64v9.26z" stroke="#000" stroke-width="2"/><path d="M300.53 2979.9h-1.02v-1.95h1.03zM432.28 2979.47h-11.25v-1.95h11.25zm47.25 0h-15.25v-1.95h15.25z" stroke="#000" stroke-width=".05"/><path d="M420.03 2983.13l-14.26-4.63 14.26-4.64z"/><path d="M421 2984.47l-18.4-5.97 18.4-5.98zm-12.08-5.97l10.14 3.3v-6.6z" stroke="#000" stroke-width=".05"/><path d="M480.53 2979.47h-1.02v-1.95h1.03z"/><path stroke="#000" stroke-width=".05"/><use xlink:href="#b" transform="matrix(1,0,0,1,432.27716918627704,2968.4283628301287) translate(0.004999999999999005 14.800347222222223)"/><path d="M102.03 3098.32h-138.5v-1.95h138.5z" stroke="#000" stroke-width=".05"/><path d="M-36.44 3098.32h-1.03v-1.95h1.03z"/><path stroke="#000" stroke-width=".05"/><path d="M117.3 3097.34l-14.27 4.64v-9.27z"/><path d="M120.45 3097.34l-18.4 5.98v-11.95zm-16.44 3.3l10.14-3.3-10.13-3.3z" stroke="#000" stroke-width=".05"/><path d="M-719.47 2960h100v159.22h-100z" stroke="#000" stroke-width="2" fill="#fff"/><use xlink:href="#p" transform="matrix(1,0,0,1,-714.4675211782492,2965) translate(11.703703703703717 76.29166666666666)"/><path d="M769.17 3020.97h-7.64v-1.94h7.64zm51.86 0h-19.86v-1.94h19.86z" stroke="#000" stroke-width=".05"/><path d="M761.56 3020.97h-1.03v-1.94h1.03z" stroke="#000" stroke-width=".05"/><path d="M836.3 3020l-14.27 4.64v-9.28z"/><path d="M839.45 3020l-18.4 5.98v-11.96zm-16.44 3.3l10.14-3.3-10.13-3.3z" stroke="#000" stroke-width=".05"/><use xlink:href="#b" transform="matrix(1,0,0,1,769.1684237170706,3009.9305555555557) translate(0.004999999999999005 14.800347222222223)"/><path d="M821.03 3040.04v1.95l-17.74-.03v-1.95zm-58.5 1.32v-1.95h8.75v1.96z" stroke="#000" stroke-width=".05"/><path d="M762.56 3041.36h-1.03v-1.95h1.03z"/><path stroke="#000" stroke-width=".05"/><path d="M836.3 3041l-14.27 4.65v-9.27z"/><path d="M839.45 3041l-18.4 6v-11.97zm-16.44 3.3l10.14-3.3-10.13-3.28z" stroke="#000" stroke-width=".05"/><use xlink:href="#c" transform="matrix(1,0,0,1,771.2803854348616,3030.3184728419833) translate(0.004999999999999005 14.800347222222223)"/><path d="M798.87 3061.68h-19.84v-1.95h19.84zm39.66-.63h-7.65v-1.95h7.65z" stroke="#000" stroke-width=".05"/><path d="M778.03 3065.34l-14.26-4.63 14.26-4.63z"/><path d="M779 3066.7l-18.4-6 18.4-5.97zm-12.08-6l10.14 3.3v-6.6zM839.53 3061.05h-1.02v-1.96h1.03z" stroke="#000" stroke-width=".05"/><use xlink:href="#d" transform="matrix(1,0,0,1,798.8722331344403,3050.000396690276) translate(0.004999999999999005 14.800347222222223)"/><path d="M660.53 2960.78h100V3120h-100z" stroke="#000" stroke-width="2" fill="#fff"/><use xlink:href="#r" transform="matrix(1,0,0,1,665.5324788217508,2965.7758345728553) translate(9.09259259259261 76.29166666666666)"/><use xlink:href="#s" transform="matrix(1,0,0,1,665.5324788217508,2965.7758345728553) translate(55.72222222222222 76.29166666666666)"/><path d="M-765.46 3020.97h-16.04v-1.94h16.04zm43.46 0h-11.46v-1.94H-722z" stroke="#000" stroke-width=".05"/><path d="M-782.5 3024.64l-14.26-4.64 14.26-4.64z"/><path d="M-781.52 3025.98l-18.4-5.98 18.4-5.98zm-12.1-5.98l10.15 3.3v-6.6zM-721 3020.97h-1.03v-1.94h1.03z" stroke="#000" stroke-width=".05"/><use xlink:href="#b" transform="matrix(1,0,0,1,-765.464438410176,3009.9305555555557) translate(0.004999999999999005 14.800347222222223)"/><path d="M-722 3040.04v1.95h-9.48v-1.96zm-59.5.55v-1.96h18.02v1.95z" stroke="#000" stroke-width=".05"/><path d="M-782.5 3044.25l-14.26-4.64 14.26-4.62z"/><path d="M-781.52 3045.6l-18.4-6 18.4-5.96zm-12.1-6l10.15 3.3v-6.58zM-721 3042h-1.03v-1.96h1.03z" stroke="#000" stroke-width=".05"/><use xlink:href="#c" transform="matrix(1,0,0,1,-763.4824664557593,3030.9427893213233) translate(0.004999999999999005 14.800347222222223)"/><path d="M-789.5 3061.05h-8.97v-1.96h8.97zm50 0h-18v-1.96h18z" stroke="#000" stroke-width=".05"/><path d="M-798.44 3061.05h-1.03v-1.96h1.03z" stroke="#000" stroke-width=".05"/><path d="M-724.24 3060.07l-14.26 4.63v-9.26z"/><path d="M-721.08 3060.07l-18.4 5.98v-11.96zm-16.45 3.3l10.14-3.3-10.13-3.3z" stroke="#000" stroke-width=".05"/><use xlink:href="#d" transform="matrix(1,0,0,1,-789.4991694379411,3050.000396690276) translate(0.004999999999999005 14.800347222222223)"/><path d="M-1000.68 2700h-10l26.93 101h10zM-983.74 2801h10l-26.93 101h-10z" stroke="#000" stroke-opacity="0" stroke-width="2" fill="#b8f5ed"/><path d="M-1009 2701h2028" stroke="#00c2a8" stroke-width="2" stroke-linecap="round" fill="none"/><path d="M981.5 2799.03v1.94h-16.32v-1.94zm-57.85 1.65v-1.95h9.52v1.95z" stroke="#000" stroke-width=".05"/><path d="M923.68 2800.68h-1.03v-1.95h1.03z"/><path stroke="#000" stroke-width=".05"/><path d="M996.76 2800l-14.26 4.64v-9.28z"/><path d="M999.92 2800l-18.4 5.98v-11.96zm-16.45 3.3l10.14-3.3-10.13-3.3z" stroke="#000" stroke-width=".05"/><use xlink:href="#b" transform="matrix(1,0,0,1,933.1742027192048,2789.638901136583) translate(0.004999999999999005 14.800347222222223)"/><path d="M-998.96 3142h10l-26.93-101h-10zM-1015.9 3041h-10l26.93-101h10zM1030.8 3142h10l-26.93-101h-10zM1013.87 3041h-10l26.93-101h10z" stroke="#000" stroke-opacity="0" stroke-width="2" fill="#cfe4ff"/><path d="M-419.2 2740.97h-18.66v-1.94h18.67zm59.84 0h-27.82v-1.94h27.82z" stroke="#000" stroke-width=".05"/><path d="M-437.83 2740.97h-1.03v-1.94h1.03z" stroke="#000" stroke-width=".05"/><path d="M-344.1 2740l-14.26 4.64v-9.28z"/><path d="M-340.94 2740l-18.4 5.98v-11.96zm-16.44 3.3l10.13-3.3-10.13-3.3z" stroke="#000" stroke-width=".05"/><use xlink:href="#g" transform="matrix(1,0,0,1,-406.4152520980957,2729.9305555555557) translate(0.005 14.800347222222223)"/><use xlink:href="#t" transform="matrix(1,0,0,1,-419.18555267848905,2729.9305555555557) translate(0.004999999999999005 14.800347222222223)"/><path d="M-239 2740h80.03M-238.97 2740H-240" stroke="#000" stroke-width="2" fill="none"/><path d="M-143.7 2740l-14.27 4.64v-9.28z" stroke="#000" stroke-width="2"/><path d="M-39 2740H99.5M-38.97 2740H-40" stroke="#000" stroke-width="2" fill="none"/><path d="M114.76 2740l-14.26 4.64v-9.28z" stroke="#000" stroke-width="2"/><path d="M221 2740h60.03M221.03 2740H220" stroke="#000" stroke-width="2" fill="none"/><path d="M296.3 2740l-14.27 4.64v-9.28z" stroke="#000" stroke-width="2"/><path d="M401 2740h60.03M401.03 2740H400" stroke="#000" stroke-width="2" fill="none"/><path d="M476.3 2740l-14.27 4.64v-9.28z" stroke="#000" stroke-width="2"/><defs><path d="M30 0v-248h33v221h125V0H30" id="u"/><path d="M100-194c62-1 85 37 85 99 1 63-27 99-86 99S16-35 15-95c0-66 28-99 85-99zM99-20c44 1 53-31 53-75 0-43-8-75-51-75s-53 32-53 75 10 74 51 75" id="v"/><path d="M115-194c55 1 70 41 70 98S169 2 115 4C84 4 66-9 55-30l1 105H24l-1-265h31l2 30c10-21 28-34 59-34zm-8 174c40 0 45-34 45-75s-6-73-45-74c-42 0-51 32-51 76 0 43 10 73 51 73" id="w"/><path d="M115-194c53 0 69 39 70 98 0 66-23 100-70 100C84 3 66-7 56-30L54 0H23l1-261h32v101c10-23 28-34 59-34zm-8 174c40 0 45-34 45-75 0-40-5-75-45-74-42 0-51 32-51 76 0 43 10 73 51 73" id="x"/><path d="M141-36C126-15 110 5 73 4 37 3 15-17 15-53c-1-64 63-63 125-63 3-35-9-54-41-54-24 1-41 7-42 31l-33-3c5-37 33-52 76-52 45 0 72 20 72 64v82c-1 20 7 32 28 27v20c-31 9-61-2-59-35zM48-53c0 20 12 33 32 33 41-3 63-29 60-74-43 2-92-5-92 41" id="y"/><path d="M96-169c-40 0-48 33-48 73s9 75 48 75c24 0 41-14 43-38l32 2c-6 37-31 61-74 61-59 0-76-41-82-99-10-93 101-131 147-64 4 7 5 14 7 22l-32 3c-4-21-16-35-41-35" id="z"/><path d="M143 0L79-87 56-68V0H24v-261h32v163l83-92h37l-77 82L181 0h-38" id="A"/><g id="a"><use transform="matrix(0.03703703703703702,0,0,0.03703703703703702,0,0)" xlink:href="#u"/><use transform="matrix(0.03703703703703702,0,0,0.03703703703703702,7.407407407407404,0)" xlink:href="#v"/><use transform="matrix(0.03703703703703702,0,0,0.03703703703703702,14.814814814814808,0)" xlink:href="#v"/><use transform="matrix(0.03703703703703702,0,0,0.03703703703703702,22.222222222222214,0)" xlink:href="#w"/><use transform="matrix(0.03703703703703702,0,0,0.03703703703703702,29.629629629629616,0)" xlink:href="#x"/><use transform="matrix(0.03703703703703702,0,0,0.03703703703703702,37.03703703703702,0)" xlink:href="#y"/><use transform="matrix(0.03703703703703702,0,0,0.03703703703703702,44.44444444444443,0)" xlink:href="#z"/><use transform="matrix(0.03703703703703702,0,0,0.03703703703703702,51.111111111111086,0)" xlink:href="#A"/></g><path d="M904-1102c199 0 220 177 220 381V0H956v-686c-3-114 0-215-60-264-70-33-125-4-158 71-26 56-39 140-39 252V0H531v-686c-3-114-1-215-61-264-78-41-136 24-157 84-24 69-39 159-39 259V0H105c-3-360 6-732-6-1082h149c6 50 3 123 8 175 36-100 83-195 216-195 135 0 166 79 196 196 42-105 93-196 236-196" id="B"/><path d="M873-819c-18-114-119-146-250-146-163 0-245 50-245 151 0 151 170 148 294 185 182 54 388 94 388 320 0 240-189 325-439 329-245 4-410-69-454-268l159-31c24 133 136 168 295 165 144-2 270-31 270-171 0-164-195-160-331-202-167-52-350-87-350-299 0-218 173-315 413-313 220 2 373 77 412 260" id="C"/><path d="M1048-32c-2 300-135 456-433 456-222-1-358-88-400-267l184-25c22 99 100 157 222 156 184-2 248-125 248-315 0-64 3-133-2-194C807-100 706-13 524-12c-306 0-381-228-381-537 0-318 85-550 400-550 164 0 271 83 325 202h3c1-60 3-134 12-185h171c-13 339-4 702-6 1050zM585-145c210-8 284-178 284-406 0-192-52-331-177-392-33-16-69-22-104-22-223 2-259 184-259 414 0 229 31 415 256 406" id="D"/><g id="b"><use transform="matrix(0.008680555555555556,0,0,0.008680555555555556,0,0)" xlink:href="#B"/><use transform="matrix(0.008680555555555556,0,0,0.008680555555555556,10.668402777777779,0)" xlink:href="#C"/><use transform="matrix(0.008680555555555556,0,0,0.008680555555555556,21.336805555555557,0)" xlink:href="#D"/></g><path d="M715 0H502L69-1082h202c94 253 197 500 285 758 19 57 36 126 52 183 96-335 234-626 350-941h201" id="E"/><path d="M1000-272c3 95 12 159 101 161 21 0 41-3 59-7V-6c-44 10-86 16-139 16-141 2-191-84-197-217h-6C748-76 648 20 446 20c-207 0-318-120-318-322 0-266 194-348 454-354l236-4c12-191-40-305-222-305-140 0-220 47-232 172l-188-17c33-204 181-292 423-292 255 0 401 118 401 364v466zm-683-27c0 109 63 184 175 182 166-3 259-96 306-217 24-65 20-120 20-200-232 7-501-28-501 235" id="F"/><path d="M736-142h380V0H134v-142h422v-1200H267v-142h469v1342" id="G"/><g id="c"><use transform="matrix(0.008680555555555556,0,0,0.008680555555555556,0,0)" xlink:href="#E"/><use transform="matrix(0.008680555555555556,0,0,0.008680555555555556,10.668402777777779,0)" xlink:href="#F"/><use transform="matrix(0.008680555555555556,0,0,0.008680555555555556,21.336805555555557,0)" xlink:href="#G"/></g><path d="M839-1102c70 0 148 7 206 17v167c-112-18-268-36-363 15-129 69-208 203-208 395V0H294c-10-367 32-789-52-1082h171c21 75 41 161 48 250h5c67-152 152-270 373-270" id="H"/><path d="M865-914c-3-187-2-380-2-570h180v1261c0 76 1 155 6 223H877c-8-49-9-116-10-174h-5C801-44 708 26 530 26c-135 0-234-46-297-139s-95-232-95-419c0-377 131-566 392-566 176 0 271 63 335 184zm-286-51c-222 0-255 197-255 427 0 229 31 425 253 425 237 0 286-195 286-441 0-238-52-411-284-411" id="I"/><path d="M168 279c222 39 310-114 368-290L66-1082h192c120 299 249 590 362 896 115-301 235-597 351-896h190L705 0c-65 164-130 320-275 396-67 36-177 35-262 18V279" id="J"/><g id="d"><use transform="matrix(0.008680555555555556,0,0,0.008680555555555556,0,0)" xlink:href="#H"/><use transform="matrix(0.008680555555555556,0,0,0.008680555555555556,10.668402777777779,0)" xlink:href="#I"/><use transform="matrix(0.008680555555555556,0,0,0.008680555555555556,21.336805555555557,0)" xlink:href="#J"/></g><path d="M212-179c-10-28-35-45-73-45-59 0-87 40-87 99 0 60 29 101 89 101 43 0 62-24 78-52l27 14C228-24 195 4 139 4 59 4 22-46 18-125c-6-104 99-153 187-111 19 9 31 26 39 46" id="K"/><path d="M114-163C36-179 61-72 57 0H25l-1-190h30c1 12-1 29 2 39 6-27 23-49 58-41v29" id="L"/><path d="M143 4C61 4 22-44 18-125c-5-107 100-154 193-111 17 8 29 25 37 43l-32 9c-13-25-37-40-76-40-61 0-88 39-88 99 0 61 29 100 91 101 35 0 62-11 79-27v-45h-74v-28h105v86C228-13 192 4 143 4" id="M"/><path d="M100-194c63 0 86 42 84 106H49c0 40 14 67 53 68 26 1 43-12 49-29l28 8c-11 28-37 45-77 45C44 4 14-33 15-96c1-61 26-98 85-98zm52 81c6-60-76-77-97-28-3 7-6 17-6 28h103" id="N"/><path d="M117-194c89-4 53 116 60 194h-32v-121c0-31-8-49-39-48C34-167 62-67 57 0H25l-1-190h30c1 10-1 24 2 32 11-22 29-35 61-36" id="O"/><g id="e"><use transform="matrix(0.03703703703703702,0,0,0.03703703703703702,0,0)" xlink:href="#K"/><use transform="matrix(0.03703703703703702,0,0,0.03703703703703702,9.592592592592588,0)" xlink:href="#L"/><use transform="matrix(0.03703703703703702,0,0,0.03703703703703702,13.999999999999991,0)" xlink:href="#z"/><use transform="matrix(0.03703703703703702,0,0,0.03703703703703702,20.666666666666657,0)" xlink:href="#M"/><use transform="matrix(0.03703703703703702,0,0,0.03703703703703702,31.037037037037024,0)" xlink:href="#N"/><use transform="matrix(0.03703703703703702,0,0,0.03703703703703702,38.44444444444443,0)" xlink:href="#O"/></g><path d="M106-169C34-169 62-67 57 0H25v-261h32l-1 103c12-21 28-36 61-36 89 0 53 116 60 194h-32v-121c2-32-8-49-39-48" id="P"/><g id="f"><use transform="matrix(0.03703703703703702,0,0,0.03703703703703702,0,0)" xlink:href="#K"/><use transform="matrix(0.03703703703703702,0,0,0.03703703703703702,9.592592592592588,0)" xlink:href="#L"/><use transform="matrix(0.03703703703703702,0,0,0.03703703703703702,13.999999999999991,0)" xlink:href="#z"/><use transform="matrix(0.03703703703703702,0,0,0.03703703703703702,20.666666666666657,0)" xlink:href="#K"/><use transform="matrix(0.03703703703703702,0,0,0.03703703703703702,30.259259259259245,0)" xlink:href="#P"/><use transform="matrix(0.03703703703703702,0,0,0.03703703703703702,37.66666666666665,0)" xlink:href="#A"/></g><path d="M631 20c-350 0-501-215-501-562 0-355 162-560 502-560 250 0 399 118 446 323l-192 14c-23-124-109-196-262-196-242 0-305 171-305 415 1 245 61 427 304 427 151 0 248-77 267-215l190 12C1039-107 883 20 631 20" id="Q"/><path d="M914 0L548-499l-132 98V0H236v-1484h180v927l475-525h211L663-617 1125 0H914" id="R"/><g id="h"><use transform="matrix(0.008680555555555556,0,0,0.008680555555555556,0,0)" xlink:href="#Q"/><use transform="matrix(0.008680555555555556,0,0,0.008680555555555556,10.668402777777779,0)" xlink:href="#G"/><use transform="matrix(0.008680555555555556,0,0,0.008680555555555556,21.336805555555557,0)" xlink:href="#R"/></g><path d="M682 16c-209 0-323-80-324-285v-671H190v-142h170l58-282h120v282h432v142H538v652c2 114 60 155 182 155 106 0 209-16 297-34v137C921-4 806 16 682 16" id="S"/><g id="i"><use transform="matrix(0.008680555555555556,0,0,0.008680555555555556,0,0)" xlink:href="#H"/><use transform="matrix(0.008680555555555556,0,0,0.008680555555555556,10.668402777777779,0)" xlink:href="#C"/><use transform="matrix(0.008680555555555556,0,0,0.008680555555555556,21.336805555555557,0)" xlink:href="#S"/></g><path d="M233-177c-1 41-23 64-60 70L243 0h-38l-65-103H63V0H30v-248c88 3 205-21 203 71zM63-129c60-2 137 13 137-47 0-61-80-42-137-45v92" id="T"/><path d="M24-231v-30h32v30H24zM24 0v-190h32V0H24" id="U"/><g id="j"><use transform="matrix(0.03703703703703702,0,0,0.03703703703703702,0,0)" xlink:href="#T"/><use transform="matrix(0.03703703703703702,0,0,0.03703703703703702,9.592592592592588,0)" xlink:href="#N"/><use transform="matrix(0.03703703703703702,0,0,0.03703703703703702,16.999999999999993,0)" xlink:href="#w"/><use transform="matrix(0.03703703703703702,0,0,0.03703703703703702,24.407407407407398,0)" xlink:href="#y"/><use transform="matrix(0.03703703703703702,0,0,0.03703703703703702,31.814814814814802,0)" xlink:href="#U"/><use transform="matrix(0.03703703703703702,0,0,0.03703703703703702,34.740740740740726,0)" xlink:href="#L"/></g><path d="M617-1102c355 0 481 238 477 599H322c5 222 84 388 301 388 144 0 244-59 284-166l158 45C1002-72 854 20 623 20c-342 0-490-220-490-568 0-346 151-554 484-554zm291 461c-18-192-90-328-289-328-194 0-287 128-295 328h584" id="V"/><path d="M698-1104c312 3 392 244 392 558 0 315-82 566-392 566-169 0-277-65-331-184h-5c8 188 2 394 4 589H185V-858c0-76-1-156-6-224h175c6 52 9 120 10 178h4c58-122 150-202 330-200zm-49 991c225 0 255-203 255-433 0-225-32-419-253-419-236 0-285 192-285 441 0 237 53 411 283 411" id="W"/><path d="M745-142h380V0H143v-142h422v-798H246v-142h499v940zM545-1292v-192h200v192H545" id="X"/><g id="k"><use transform="matrix(0.008680555555555556,0,0,0.008680555555555556,0,0)" xlink:href="#H"/><use transform="matrix(0.008680555555555556,0,0,0.008680555555555556,10.668402777777779,0)" xlink:href="#V"/><use transform="matrix(0.008680555555555556,0,0,0.008680555555555556,21.336805555555557,0)" xlink:href="#W"/><use transform="matrix(0.008680555555555556,0,0,0.008680555555555556,32.005208333333336,0)" xlink:href="#F"/><use transform="matrix(0.008680555555555556,0,0,0.008680555555555556,42.673611111111114,0)" xlink:href="#X"/><use transform="matrix(0.008680555555555556,0,0,0.008680555555555556,53.34201388888889,0)" xlink:href="#H"/></g><g id="l"><use transform="matrix(0.008680555555555556,0,0,0.008680555555555556,0,0)" xlink:href="#Q"/><use transform="matrix(0.008680555555555556,0,0,0.008680555555555556,10.668402777777779,0)" xlink:href="#H"/><use transform="matrix(0.008680555555555556,0,0,0.008680555555555556,21.336805555555557,0)" xlink:href="#Q"/></g><path d="M85-194c31 0 48 13 60 33l-1-100h32l1 261h-30c-2-10 0-23-3-31C134-8 116 4 85 4 32 4 16-35 15-94c0-66 23-100 70-100zm9 24c-40 0-46 34-46 75 0 40 6 74 45 74 42 0 51-32 51-76 0-42-9-74-50-73" id="Y"/><path d="M59-47c-2 24 18 29 38 22v24C64 9 27 4 27-40v-127H5v-23h24l9-43h21v43h35v23H59v120" id="Z"/><path d="M108 0H70L1-190h34L89-25l56-165h34" id="aa"/><g id="m"><use transform="matrix(0.03703703703703702,0,0,0.03703703703703702,0,0)" xlink:href="#K"/><use transform="matrix(0.03703703703703702,0,0,0.03703703703703702,9.592592592592588,0)" xlink:href="#L"/><use transform="matrix(0.03703703703703702,0,0,0.03703703703703702,13.999999999999991,0)" xlink:href="#N"/><use transform="matrix(0.03703703703703702,0,0,0.03703703703703702,21.407407407407398,0)" xlink:href="#Y"/><use transform="matrix(0.03703703703703702,0,0,0.03703703703703702,28.814814814814802,0)" xlink:href="#U"/><use transform="matrix(0.03703703703703702,0,0,0.03703703703703702,31.740740740740726,0)" xlink:href="#Z"/><use transform="matrix(0.03703703703703702,0,0,0.03703703703703702,35.44444444444443,0)" xlink:href="#T"/><use transform="matrix(0.03703703703703702,0,0,0.03703703703703702,45.03703703703702,0)" xlink:href="#N"/><use transform="matrix(0.03703703703703702,0,0,0.03703703703703702,52.44444444444442,0)" xlink:href="#z"/><use transform="matrix(0.03703703703703702,0,0,0.03703703703703702,59.111111111111086,0)" xlink:href="#aa"/></g><path d="M185-189c-5-48-123-54-124 2 14 75 158 14 163 119 3 78-121 87-175 55-17-10-28-26-33-46l33-7c5 56 141 63 141-1 0-78-155-14-162-118-5-82 145-84 179-34 5 7 8 16 11 25" id="ab"/><g id="n"><use transform="matrix(0.03703703703703702,0,0,0.03703703703703702,0,0)" xlink:href="#K"/><use transform="matrix(0.03703703703703702,0,0,0.03703703703703702,9.592592592592588,0)" xlink:href="#L"/><use transform="matrix(0.03703703703703702,0,0,0.03703703703703702,13.999999999999991,0)" xlink:href="#N"/><use transform="matrix(0.03703703703703702,0,0,0.03703703703703702,21.407407407407398,0)" xlink:href="#Y"/><use transform="matrix(0.03703703703703702,0,0,0.03703703703703702,28.814814814814802,0)" xlink:href="#U"/><use transform="matrix(0.03703703703703702,0,0,0.03703703703703702,31.740740740740726,0)" xlink:href="#Z"/><use transform="matrix(0.03703703703703702,0,0,0.03703703703703702,35.44444444444443,0)" xlink:href="#ab"/><use transform="matrix(0.03703703703703702,0,0,0.03703703703703702,44.333333333333314,0)" xlink:href="#N"/><use transform="matrix(0.03703703703703702,0,0,0.03703703703703702,51.74074074074072,0)" xlink:href="#O"/><use transform="matrix(0.03703703703703702,0,0,0.03703703703703702,59.148148148148124,0)" xlink:href="#Y"/></g><g id="o"><use transform="matrix(0.008680555555555556,0,0,0.008680555555555556,0,0)" xlink:href="#Q"/><use transform="matrix(0.008680555555555556,0,0,0.008680555555555556,10.668402777777779,0)" xlink:href="#H"/><use transform="matrix(0.008680555555555556,0,0,0.008680555555555556,21.336805555555557,0)" xlink:href="#V"/><use transform="matrix(0.008680555555555556,0,0,0.008680555555555556,32.005208333333336,0)" xlink:href="#I"/><use transform="matrix(0.008680555555555556,0,0,0.008680555555555556,42.673611111111114,0)" xlink:href="#X"/><use transform="matrix(0.008680555555555556,0,0,0.008680555555555556,53.34201388888889,0)" xlink:href="#S"/></g><path d="M30-248c87 1 191-15 191 75 0 78-77 80-158 76V0H30v-248zm33 125c57 0 124 11 124-50 0-59-68-47-124-48v98" id="ac"/><g id="p"><use transform="matrix(0.03703703703703702,0,0,0.03703703703703702,0,0)" xlink:href="#ac"/><use transform="matrix(0.03703703703703702,0,0,0.03703703703703702,8.888888888888886,0)" xlink:href="#y"/><use transform="matrix(0.03703703703703702,0,0,0.03703703703703702,16.29629629629629,0)" xlink:href="#Z"/><use transform="matrix(0.03703703703703702,0,0,0.03703703703703702,19.999999999999993,0)" xlink:href="#Z"/><use transform="matrix(0.03703703703703702,0,0,0.03703703703703702,23.703703703703695,0)" xlink:href="#N"/><use transform="matrix(0.03703703703703702,0,0,0.03703703703703702,31.111111111111104,0)" xlink:href="#L"/><use transform="matrix(0.03703703703703702,0,0,0.03703703703703702,35.518518518518505,0)" xlink:href="#O"/><use transform="matrix(0.03703703703703702,0,0,0.03703703703703702,42.92592592592591,0)" xlink:href="#K"/><use transform="matrix(0.03703703703703702,0,0,0.03703703703703702,52.5185185185185,0)" xlink:href="#P"/><use transform="matrix(0.03703703703703702,0,0,0.03703703703703702,59.9259259259259,0)" xlink:href="#A"/></g><g id="q"><use transform="matrix(0.03703703703703702,0,0,0.03703703703703702,0,0)" xlink:href="#ac"/><use transform="matrix(0.03703703703703702,0,0,0.03703703703703702,8.888888888888886,0)" xlink:href="#y"/><use transform="matrix(0.03703703703703702,0,0,0.03703703703703702,16.29629629629629,0)" xlink:href="#Z"/><use transform="matrix(0.03703703703703702,0,0,0.03703703703703702,19.999999999999993,0)" xlink:href="#Z"/><use transform="matrix(0.03703703703703702,0,0,0.03703703703703702,23.703703703703695,0)" xlink:href="#N"/><use transform="matrix(0.03703703703703702,0,0,0.03703703703703702,31.111111111111104,0)" xlink:href="#L"/><use transform="matrix(0.03703703703703702,0,0,0.03703703703703702,35.518518518518505,0)" xlink:href="#O"/><use transform="matrix(0.03703703703703702,0,0,0.03703703703703702,42.92592592592591,0)" xlink:href="#M"/><use transform="matrix(0.03703703703703702,0,0,0.03703703703703702,53.296296296296276,0)" xlink:href="#N"/><use transform="matrix(0.03703703703703702,0,0,0.03703703703703702,60.70370370370368,0)" xlink:href="#O"/></g><g id="r"><use transform="matrix(0.03703703703703702,0,0,0.03703703703703702,0,0)" xlink:href="#ac"/><use transform="matrix(0.03703703703703702,0,0,0.03703703703703702,8.888888888888886,0)" xlink:href="#y"/><use transform="matrix(0.03703703703703702,0,0,0.03703703703703702,16.29629629629629,0)" xlink:href="#Z"/><use transform="matrix(0.03703703703703702,0,0,0.03703703703703702,19.999999999999993,0)" xlink:href="#Z"/><use transform="matrix(0.03703703703703702,0,0,0.03703703703703702,23.703703703703695,0)" xlink:href="#N"/><use transform="matrix(0.03703703703703702,0,0,0.03703703703703702,31.111111111111104,0)" xlink:href="#L"/><use transform="matrix(0.03703703703703702,0,0,0.03703703703703702,35.518518518518505,0)" xlink:href="#O"/></g><g id="s"><use transform="matrix(0.03703703703703702,0,0,0.03703703703703702,0,0)" xlink:href="#M"/><use transform="matrix(0.03703703703703702,0,0,0.03703703703703702,10.370370370370367,0)" xlink:href="#N"/><use transform="matrix(0.03703703703703702,0,0,0.03703703703703702,17.77777777777777,0)" xlink:href="#O"/></g><g id="t"><use transform="matrix(0.008680555555555556,0,0,0.008680555555555556,0,0)" xlink:href="#B"/><use transform="matrix(0.008680555555555556,0,0,0.008680555555555556,10.668402777777779,0)" xlink:href="#C"/><use transform="matrix(0.008680555555555556,0,0,0.008680555555555556,21.336805555555557,0)" xlink:href="#D"/></g></defs></g></svg>